<?xml version="1.0" standalone="no"?>
<!DOCTYPE svg PUBLIC "-//W3C//DTD SVG 20010904//EN"
 "http://www.w3.org/TR/2001/REC-SVG-20010904/DTD/svg10.dtd">
<svg version="1.0" xmlns="http://www.w3.org/2000/svg"
 width="280.000000pt" height="259.000000pt" viewBox="0 0 280.000000 259.000000"
 preserveAspectRatio="xMidYMid meet">
<metadata>
Created by potrace 1.10, written by Peter Selinger 2001-2011
</metadata>
<g transform="translate(0.000000,259.000000) scale(0.100000,-0.100000)"
fill="#000000" stroke="none">
<path d="M1232 2375 c-30 -22 -42 -54 -30 -84 5 -13 81 -141 170 -285 89 -144
210 -340 270 -436 59 -96 120 -188 134 -203 32 -33 59 -32 86 4 l19 26 -66
234 c-36 129 -91 324 -121 434 -31 112 -66 216 -79 236 -38 59 -91 78 -236 85
-107 5 -127 4 -147 -11z m304 -53 c22 -11 44 -29 51 -40 6 -11 30 -86 53 -168
23 -82 78 -276 122 -432 74 -263 84 -312 59 -312 -5 0 -41 51 -79 113 -38 61
-163 263 -277 447 -114 184 -215 347 -223 361 -9 15 -12 33 -8 44 6 17 17 18
135 12 101 -4 137 -10 167 -25z"/>
<path d="M647 1293 c-175 -175 -327 -335 -338 -355 -33 -64 -25 -112 35 -235
51 -104 90 -153 122 -153 8 0 27 12 43 28 36 33 541 940 541 971 0 40 -18 61
-52 61 -28 0 -67 -36 -351 -317z m373 273 c0 -8 -109 -209 -241 -448 -133
-238 -251 -451 -263 -473 -24 -46 -34 -55 -59 -55 -12 0 -33 32 -72 116 -61
129 -69 178 -36 229 27 41 643 645 659 645 6 0 12 -6 12 -14z"/>
<path d="M1341 1403 c-37 -38 -221 -363 -221 -391 0 -12 9 -31 20 -42 19 -19
33 -20 240 -20 207 0 221 1 240 20 11 11 20 28 20 38 0 26 -206 383 -233 404
-29 23 -34 23 -66 -9z m105 -115 c32 -57 82 -143 111 -191 29 -48 53 -92 53
-97 0 -6 -89 -10 -230 -10 -155 0 -230 3 -230 11 0 17 223 398 231 394 4 -3
33 -51 65 -107z"/>
<path d="M1205 655 c-31 -30 -31 -37 -2 -69 17 -20 63 -37 217 -81 107 -31
295 -85 417 -121 330 -96 348 -92 473 88 80 116 89 152 44 187 -26 21 -35 21
-576 21 l-549 0 -24 -25z m1142 -32 c7 -18 2 -28 -80 -148 -32 -47 -71 -92
-87 -100 -43 -22 -104 -18 -215 14 -55 16 -163 48 -240 70 -77 23 -221 64
-320 92 -308 88 -303 89 376 89 512 0 560 -1 566 -17z"/>
</g>
</svg>
